PathFileType	4	(X/Y/Z)	C:\Users\Graham\Documents\MATLAB\MOtoNMS_v2_2\MyData\ElaboratedData\S8\22-05-17\staticElaborations\Static1\Static1\\Static1.trc
DataRate	CameraRate	NumFrames	NumMarkers	Units	OrigDataRate	DataStartFrame
100	100	4	38	mm	100	2
Frame#	Time	V_Sacral			R_ASIS			L_ASIS			R_Knee_Lat			R_Knee_Med			R_Thigh_Upper			R_Thigh_Front			R_Thigh_Rear			L_Knee_Lat			L_Knee_Med			L_Thigh_Upper			L_Thigh_Front			L_Thigh_Rear			R_Ankle_Lat			R_Ankle_Med			R_Shank_Upper			R_Shank_Front			R_Shank_Rear			L_Ankle_Lat			L_Ankle_Med			L_Shank_Upper			L_Shank_Front			L_Shank_Rear			R_Heel			R_MTP1			R_MTP5			L_Heel			L_MTP1			L_MTP5			Clavicle			R_Acromium			L_Acromium			LAJC			RAJC			LHJC			RHJC			LKJC			RKJC		
		X1	Y1	Z1	X2	Y2	Z2	X3	Y3	Z3	X4	Y4	Z4	X5	Y5	Z5	X6	Y6	Z6	X7	Y7	Z7	X8	Y8	Z8	X9	Y9	Z9	X10	Y10	Z10	X11	Y11	Z11	X12	Y12	Z12	X13	Y13	Z13	X14	Y14	Z14	X15	Y15	Z15	X16	Y16	Z16	X17	Y17	Z17	X18	Y18	Z18	X19	Y19	Z19	X20	Y20	Z20	X21	Y21	Z21	X22	Y22	Z22	X23	Y23	Z23	X24	Y24	Z24	X25	Y25	Z25	X26	Y26	Z26	X27	Y27	Z27	X28	Y28	Z28	X29	Y29	Z29	X30	Y30	Z30	X31	Y31	Z31	X32	Y32	Z32	X33	Y33	Z33	X34	Y34	Z34	X35	Y35	Z35	X36	Y36	Z36	X37	Y37	Z37	X38	Y38	Z38	

165	1.640000	-245.776775	1017.934434	-13.195492	-46.355921	992.950414	133.680377	-22.338611	993.107136	-96.854215	-129.736949	526.348697	176.060342	-144.554821	528.529624	39.592615	-13.461257	818.271023	136.534509	-28.116046	704.199870	87.910161	-47.261140	703.302378	158.834107	-109.118054	536.966279	-144.740779	-146.240767	530.875068	-10.431845	4.804551	810.904125	-64.378843	-19.776939	689.998884	-38.766973	-15.063151	695.900080	-114.248725	-182.968498	92.428777	141.831627	-171.217331	100.587963	66.017886	-111.156009	333.026947	129.060544	-145.479109	225.424330	83.957307	-140.329503	219.109269	156.736650	-177.720952	88.387289	-113.657688	-164.479419	99.836325	-36.408299	-109.281831	327.433719	-97.738535	-140.872842	220.826398	-54.085174	-127.607020	210.631228	-127.294862	-241.137606	51.542161	95.673754	-28.178214	63.816342	82.270795	-47.229839	51.587803	158.295515	-238.592938	57.812369	-74.805987	-26.690721	66.224077	-59.953782	-42.827248	52.313195	-135.036078	-72.395019	1389.566603	19.697112	-160.436302	1438.046374	172.809798	-142.134283	1448.150793	-162.726232	-171.100186	94.111807	-75.032994	-177.092914	96.508370	103.924757	-95.735253	920.320043	-72.273476	-113.099531	920.206734	94.400759	-127.679411	533.920673	-77.586312	-137.145885	527.439161	107.826479	
166	1.650000	-245.768991	1017.924884	-13.201300	-46.348440	992.955245	133.673496	-22.339124	993.105992	-96.864677	-129.723750	526.352627	176.054215	-144.545727	528.530554	39.587887	-13.451786	818.269778	136.527967	-28.099222	704.201083	87.905324	-47.252602	703.301921	158.828357	-109.108720	536.965827	-144.743551	-146.227304	530.876691	-10.433938	4.816489	810.901824	-64.383108	-19.768196	689.975006	-38.771041	-15.052836	695.899244	-114.252501	-182.967406	92.428818	141.830550	-171.214898	100.588967	66.017992	-111.146590	333.025320	129.058858	-145.473945	225.424312	83.954595	-140.322679	219.108608	156.735461	-177.719254	88.388166	-113.658492	-164.479305	99.836312	-36.408885	-109.275041	327.432040	-97.737468	-140.865110	220.826889	-54.087035	-127.599340	210.632500	-127.299694	-241.138840	51.543858	95.673096	-28.176966	63.816118	82.269732	-47.228738	51.586827	158.293108	-238.589108	57.812803	-74.806291	-26.690306	66.223234	-59.953264	-42.826701	52.312850	-135.036050	-72.437374	1389.558549	19.665676	-160.467191	1438.048348	172.781912	-142.172492	1448.129789	-162.759349	-171.099280	94.112239	-75.033689	-177.091152	96.508893	103.924271	-95.730270	920.315303	-72.278471	-113.088751	920.206314	94.398182	-127.668012	533.921259	-77.588745	-137.134738	527.441590	107.821051	
167	1.660000	-245.761237	1017.915017	-13.207465	-46.340773	992.959550	133.667724	-22.339199	993.104665	-96.874702	-129.709774	526.356057	176.047443	-144.535800	528.530946	39.583131	-13.441368	818.268492	136.520101	-28.081011	704.202623	87.899156	-47.243209	703.301110	158.821424	-109.099439	536.965168	-144.746046	-146.214772	530.878460	-10.436649	4.827520	810.896375	-64.383662	-19.762372	689.938741	-38.775341	-15.043032	695.897913	-114.256213	-182.966569	92.428721	141.829103	-171.212616	100.589793	66.018310	-111.136438	333.023577	129.056392	-145.467747	225.424271	83.951771	-140.315490	219.107692	156.733969	-177.717238	88.388753	-113.659407	-164.479687	99.836120	-36.409542	-109.268614	327.430396	-97.736172	-140.858410	220.826426	-54.088835	-127.591874	210.633774	-127.304618	-241.139763	51.545188	95.672172	-28.175769	63.815565	82.268430	-47.227984	51.585886	158.290018	-238.584453	57.812550	-74.806938	-26.689706	66.222356	-59.952965	-42.826243	52.312701	-135.036059	-72.481799	1389.550617	19.634537	-160.500608	1438.049754	172.754043	-142.212902	1448.105515	-162.792768	-171.098463	94.112437	-75.034475	-177.089593	96.509257	103.923706	-95.725002	920.310130	-72.283091	-113.077862	920.205214	94.396423	-127.657106	533.921814	-77.591347	-137.122787	527.443501	107.815287	
168	1.670000	-245.753784	1017.904881	-13.214024	-46.333305	992.963333	133.663155	-22.338828	993.103207	-96.884310	-129.694890	526.358869	176.039960	-144.524924	528.530767	39.578337	-13.429799	818.267371	136.511047	-28.061767	704.204498	87.891479	-47.232405	703.300169	158.813480	-109.090244	536.964272	-144.748111	-146.203236	530.880352	-10.439768	4.837713	810.888204	-64.381013	-19.759096	689.893772	-38.779917	-15.033758	695.896127	-114.259904	-182.965916	92.428741	141.827368	-171.210441	100.590425	66.018739	-111.125638	333.021835	129.053084	-145.460420	225.424208	83.948919	-140.307881	219.106639	156.732275	-177.715020	88.389084	-113.660307	-164.480354	99.835846	-36.410194	-109.262508	327.428756	-97.734784	-140.852851	220.825197	-54.090504	-127.584619	210.635154	-127.310302	-241.140294	51.546215	95.671005	-28.174608	63.814612	82.266988	-47.227643	51.585033	158.286622	-238.579725	57.811916	-74.807902	-26.689018	66.221568	-59.952956	-42.825860	52.312722	-135.036098	-72.528455	1389.542618	19.603972	-160.537014	1438.050618	172.726196	-142.255674	1448.078154	-162.826243	-171.097687	94.112465	-75.035251	-177.088178	96.509583	103.923053	-95.719512	920.304528	-72.287466	-113.067214	920.203401	94.395422	-127.646740	533.922312	-77.593940	-137.109907	527.444818	107.809149	
